# xmcd
#
# Track frame offsets: 
#        150
#        13225
#        24195
#        36817
#        49545
#        60005
#        72370
#        83462
#        93837
#        105855
#        118175
#        129607
#
# Disc length: 1892 seconds
#
# Revision: 3
# Processed by: cddbd v1.5.2PL0 Copyright (c) Steve Scherf et al.
# Submitted via: ExactAudioCopy v0.95b2
#
DISCID=8407620c
DTITLE=Lightnin' Hopkins - Flash Lightnin´
DYEAR=1954
DGENRE=Blues
TTITLE0=Life I Used to Live
TTITLE1=My Little Kewpie Doll
TTITLE2=Sittin' Down Thinkin'
TTITLE3=My Baby's Gone
TTITLE4=Hear Me Talkin'
TTITLE5=Don't Think Cause You're Pretty
TTITLE6=Nothin' but the Blues
TTITLE7=Hopkins' Sky Hop
TTITLE8=Lightnin's Boogie
TTITLE9=Lightnin's Stomp
TTITLE10=Blues for My Cookie
TTITLE11=Evil Hearted Woman
EXTD=
EXTT0=
EXTT1=
EXTT2=
EXTT3=
EXTT4=
EXTT5=
EXTT6=
EXTT7=
EXTT8=
EXTT9=
EXTT10=
EXTT11=
PLAYORDER=
